<svg xmlns="http://www.w3.org/2000/svg" id="Camada_2" viewBox="0 0 2000 550.5"><defs><style>.st0{fill:#b3afdb}</style></defs><path d="M182.2 269.1c-1.6-1.3-3.4-2.5-5.1-3.6 9.3-7.5 16.4-17.5 21-29.8 4.5-11.9 6.8-26.1 6.8-42.2v-87.1c0-21.5-4-39.8-11.9-54.3-8.2-15.1-20.4-26.7-36.3-34.5-15.2-7.5-33.4-11.2-54.3-11.2H0v540.2h109.6c21.8 0 40.8-4 56.5-11.8 16.4-8.2 29-20.4 37.5-36.3 8.2-15.3 12.4-33.8 12.4-55.1v-94.9c0-18-2.9-33.8-8.7-46.8-5.9-13.4-14.3-24.4-25-32.6Zm-36.7-74.6c0 16.8-3.6 28.9-10.7 35.9-7.1 7.1-19.3 10.6-36.2 10.6H58.1V63H99c16.8 0 28.9 3.5 36.1 10.3 7 6.6 10.5 18.1 10.5 34.2v87.1ZM58 296.6h42.3c14.6 0 26.3 1.9 34.7 5.5 7 3.1 12 7.8 15.1 14.3 3.7 7.7 5.6 18.2 5.6 31v95.2c0 16.1-3.9 28.2-11.6 35.8s-20.3 11.5-37.5 11.5H57.9V296.6ZM381 155.4c-14.5-9.1-31.5-13.8-50.5-13.8s-35.3 4.7-49.6 14.1c-14.1 9.2-25.3 22-33.3 38.2-7.8 15.8-11.8 34.8-11.8 56.6V442c0 21.5 3.9 40.4 11.6 56.2 7.9 16.3 19.3 29.1 33.8 38.1 14.4 9 31.4 13.5 50.4 13.5s27.4-2.5 39.2-7.5c12-5.1 22.3-12.4 30.7-21.8s14.6-20.8 18.7-34c3.8-12.5 5.9-26.5 6.1-41.7v-48.9h-57.8l.5 49.7c-.2 11.3-2 20.9-5.4 28.4-3.1 6.9-7.2 11.9-12.5 15.3s-11.5 5.1-19.1 5.1-13.7-1.7-19.4-5.3c-5.5-3.5-9.8-8.8-13-16.1-3.5-8.1-5.3-18.2-5.3-30.1v-72.4h132.4V249.3c0-20.8-4-39.4-11.8-55.3-8-16.3-19.4-29.2-33.8-38.3Zm-17.6 64.4c3.6 8.1 5.4 18.4 5.4 30.7v66h-74.7v-66c0-12.4 1.8-22.9 5.2-31.1 3.1-7.4 7.2-12.7 12.5-16.2 5.4-3.5 11.8-5.2 19.6-5.2s13.4 1.7 18.8 5.3c5.5 3.7 9.8 9.1 13.1 16.6ZM452.8 0h57.7v549h-57.7zM541.3 0H599v549h-57.7zM799.8 190.3c-7.5-15.5-18.3-27.7-32.1-36.1-13.7-8.4-30.2-12.6-48.9-12.6s-34.5 4.2-48.4 12.5c-14 8.4-25.2 20.4-33 35.9-7.7 15-11.4 32.9-11.2 53.1v56.7h57.2l.5-56c0-15.9 3.3-27.8 9.7-35.5 5.9-7.1 14-10.5 25.5-10.5s18.4 3.3 23.8 10.3c6.2 7.9 9.3 20 9.3 35.9v62.3l-21.3 2c-23.6 2.1-43.6 7.4-59.6 15.8-16.6 8.8-29.5 20.6-38.3 35.1s-13.3 32.2-13.3 52.6v44.6c0 19 3.4 35.5 10.2 49.2 7.1 14.3 17.6 25.4 31.1 33 13.1 7.3 28.1 11.1 44.5 11.1s20.6-1.8 30-5.4c5.9-2.2 11.4-5.2 16.6-8.8v13.4h58.4V242.3c0-19.6-3.6-37.1-10.8-52Zm-47.5 170.1v84.7c0 10.5-1.8 19.7-5.3 27.2-3.3 7.1-7.8 12.4-13.7 16.2-5.8 3.8-12.3 5.6-20.1 5.6-11.3 0-19.7-3.1-25.9-9.5s-9.3-16.9-9.3-31.1v-43.9c0-13.3 4.2-23.6 12.8-31.5 9.3-8.5 24.8-14.1 46.2-16.6l15.4-1.3ZM1086.4 304.5q-16.2-20.4-42.3-39.3l-27.6-20.5c-23.6-17.4-40.4-34.7-50.4-51.8-9.9-17.2-14.9-37.9-14.9-62.3v-29.5c0-14.2 2.7-26.5 8-36.9S972 45.7 981.6 40s20.7-8.6 33.4-8.6 25.5 3.2 34.9 9.7c9.3 6.5 16.7 15.9 22 28.2s8.5 27.4 9.5 45.3l.4 46.2h30.2v-45.1c-1.2-24.9-5.7-45.7-13.2-62.5-7.6-16.8-18.3-29.4-32.3-37.9-13.9-8.4-31-12.7-51.1-12.7s-35.2 4.2-49.6 12.7q-21.6 12.75-33.6 35.4-12 22.8-12.3 53.7v28.7c0 30.8 6 56.3 18.1 76.3s31.4 39.5 58 58.4l27.2 20.9c23.6 17.4 40 35.1 49 53 9.1 17.9 13.6 41.3 13.6 70.1v32.4c0 16.2-2.7 30-8 41.4s-13 20.3-22.9 26.7c-9.9 6.3-21.6 9.5-35.1 9.5s-27.5-3.4-38.6-10.1-19.6-16.2-25.7-28.3c-6.1-12.2-9.6-27.1-10.6-44.8l-.4-45.9h-31.7l.4 44.4q1.8 36.15 15.3 61.5c9 16.9 21.2 29.8 36.7 38.6s33.4 13.2 53.5 13.2 37.5-4.5 52.2-13.4c14.7-9 26-21.4 34.1-37.5 8.1-16 12.1-35 12.1-56.9v-32.8c0-23.1-2.4-43.1-7.3-59.9-4.8-16.8-12.7-31.9-23.5-45.5ZM1294.9 161.6c-12.3-7.8-26.7-11.7-43.1-11.7s-32.6 4.2-45.7 12.5-23 19.8-29.8 34.5-10.3 32.6-10.3 53.7v199.2c0 20.1 3.5 37.8 10.4 53 7 15.2 16.9 26.7 29.8 34.5s28 11.7 45.1 11.7 31.1-3.9 43.5-11.6c12.3-7.7 21.9-18.8 28.9-33.2s10.4-31.7 10.4-51.8l.4-42.1h-29.8v44.4c0 21.6-4.8 38.1-14.5 49.4s-22.4 17-38 17-22-2.7-30.2-8.2-14.5-13.4-19-23.7-6.7-22.7-6.7-37.1V247.7c0-14.2 2.2-26.4 6.7-36.7s10.9-18.3 19.4-23.9 18.1-8.4 29.1-8.4c16.4 0 29.3 5.7 38.8 17.2 9.4 11.4 14.3 27.8 14.5 49.2v44.8h29.8l.7-42.5c-.7-20.6-4.6-38.1-11.6-52.4s-16.6-25.4-28.9-33.2ZM1517.2 162c-12.8-8.1-27.8-12.1-44.9-12.1s-31.3 4.1-43.8 12.3c-12.6 8.2-22.4 19.6-29.7 34.1q-10.8 21.75-10.8 52.8v201.8c0 20.4 3.5 37.9 10.6 52.4s17 25.8 29.8 33.8 27.8 11.9 44.9 11.9 24.7-2.2 35.2-6.7c10.6-4.5 19.5-10.8 26.9-19 7.3-8.2 12.8-18.2 16.4-30s5.5-25 5.8-39.7v-35.8h-29.8l.4 36.9c-.2 14.2-2.6 26.2-7.1 36.2-4.5 9.9-10.8 17.5-18.8 22.8q-12.15 7.8-28.5 7.8c-16.35 0-20.3-2.7-28.7-8-8.5-5.3-15-13.3-19.6-23.9s-6.9-23.2-6.9-37.9v-91.8h139.5V247.6c0-19.6-3.6-36.8-10.8-51.5s-17.2-26-30-34.1Zm-98.7 87.1c0-15.2 2.2-28.1 6.7-38.8s10.8-18.7 19-24.1c8.2-5.3 17.9-8 29.1-8s20.1 2.7 28.3 8.2 14.7 13.5 19.4 24.1 7.1 23.4 7.1 38.6v85h-109.7v-85ZM1616.6.7h29.8V549h-29.8zM1788.5 521.8c-12.7 0-21.9-3.4-27.6-10.3-5.7-6.8-8.6-17.6-8.6-32.3V180.5h50.4v-26.9h-50.4V48.1h-31.7v105.6H1687v26.9h33.6v302.1c0 22.9 5.3 39.5 16 50 10.7 10.4 27.1 15.7 49.2 15.7s6.3 0 9.3-.2c3-.1 5.7-.3 8.2-.6v-27.2c-2.5.5-4.8.9-7.1 1.1-2.2.2-4.8.4-7.8.4ZM1990.1 192.4c-6.6-13.7-15.9-24.2-28-31.5s-26.5-11-43.5-11-30.8 3.7-43.1 11-21.9 17.8-28.9 31.5-10.3 30-10.1 48.9v44.4h29.5l.4-43.6c0-20.4 4.6-36.1 13.8-47.2s22.1-16.6 38.8-16.6 28.6 5.6 37.3 16.8 13.1 27 13.1 47.4v79.8l-36.6 3.4c-22.9 2-41.8 7-56.9 14.9-15 8-26.5 18.4-34.3 31.3q-11.7 19.35-11.7 47.4v47c0 17.7 3 32.6 9.1 44.9s14.9 21.7 26.5 28.2 24.7 9.7 39.3 9.7 17.9-1.6 26.1-4.7 15.5-7.8 22-14.2c6.5-6.3 11.7-14.1 15.7-23.3h.7V549h30.6V240.5c0-18.4-3.3-34.4-9.9-48.1Zm-27.8 297.1c-4.7 10.1-11.4 17.9-20 23.5q-12.9 8.4-29.7 8.4-24.3 0-38.4-14.7c-9.5-9.8-14.2-24.3-14.2-43.5V417c0-18.4 6.2-33.3 18.5-44.6s31.5-18.5 57.6-21.4l33.2-2.8v106.1c0 13.4-2.4 25.2-7.1 35.2Z" class="st0"/></svg>