<svg xmlns="http://www.w3.org/2000/svg" id="Camada_2" viewBox="0 0 1000 1000"><defs><style>.st0{fill:#b3afdb}</style></defs><path d="M293.6 494.6c-1.5-1.2-3.1-2.3-4.7-3.3 8.6-6.9 15.1-16.2 19.5-27.6 4.2-11 6.3-24.1 6.3-39v-80.6c0-19.9-3.7-36.8-11-50.2-7.6-13.9-18.9-24.7-33.6-31.9-14.1-6.9-30.9-10.4-50.2-10.4h-94.8v499.8h101.4c20.2 0 37.8-3.7 52.3-10.9 15.2-7.6 26.9-18.9 34.7-33.6 7.6-14.2 11.4-31.3 11.4-51v-87.8c0-16.7-2.7-31.3-8-43.3-5.5-12.4-13.3-22.6-23.1-30.2Zm-34-68.9c0 15.6-3.3 26.8-9.9 33.2-6.6 6.5-17.9 9.8-33.5 9.8h-37.5V303.9h37.8c15.5 0 26.7 3.2 33.4 9.5 6.4 6.1 9.7 16.8 9.7 31.6v80.6Zm-80.9 94.4h39.1c13.5 0 24.3 1.7 32.1 5.1 6.5 2.8 11.1 7.2 14 13.3 3.5 7.2 5.2 16.8 5.2 28.7v88.1c0 14.9-3.6 26.1-10.7 33.1-7.1 7.1-18.8 10.6-34.7 10.6h-45V520.2ZM477.4 389.4c-13.4-8.5-29.1-12.7-46.7-12.7s-32.7 4.4-45.9 13c-13 8.5-23.4 20.4-30.8 35.3-7.2 14.6-10.9 32.2-10.9 52.4v177.2c0 19.9 3.6 37.4 10.7 52 7.3 15.1 17.8 26.9 31.2 35.2s29.1 12.5 46.6 12.5 25.3-2.3 36.2-7c11.1-4.7 20.7-11.5 28.4-20.2s13.5-19.2 17.3-31.5c3.5-11.5 5.4-24.5 5.7-38.6v-45.3h-53.5l.5 45.9c-.2 10.5-1.9 19.3-5 26.3-2.9 6.4-6.6 11-11.5 14.1-4.9 3.2-10.7 4.7-17.7 4.7s-12.7-1.6-18-4.9c-5.1-3.2-9-8.1-12-14.9-3.3-7.5-4.9-16.9-4.9-27.8v-67h122.5V475.9c0-19.3-3.7-36.5-10.9-51.2-7.4-15.1-18-27-31.3-35.5ZM461.2 449c3.3 7.5 5 17 5 28.4v61.1h-69.1v-61.1c0-11.4 1.6-21.1 4.8-28.8 2.9-6.9 6.7-11.8 11.6-15 5-3.3 10.9-4.8 18.1-4.8s12.4 1.6 17.4 4.9c5.1 3.4 9.1 8.4 12.2 15.4ZM543.9 245.7h53.4v507.9h-53.4zM625.8 245.7h53.4v507.9h-53.4zM865 421.7c-6.9-14.4-16.9-25.6-29.7-33.4-12.7-7.7-27.9-11.6-45.2-11.6s-31.9 3.9-44.8 11.6c-13 7.7-23.3 18.9-30.5 33.2-7.1 13.9-10.6 30.5-10.3 49.2v52.5h52.9l.4-51.8c0-14.7 3-25.7 9-32.9 5.5-6.6 13-9.7 23.6-9.7s17 3 22 9.5c5.7 7.3 8.6 18.5 8.6 33.3v57.7l-19.7 1.8c-21.8 1.9-40.4 6.8-55.1 14.6-15.3 8.1-27.3 19.1-35.4 32.5-8.2 13.5-12.3 29.8-12.3 48.6v41.3c0 17.5 3.2 32.9 9.4 45.5 6.6 13.3 16.3 23.5 28.8 30.6 12.2 6.8 26 10.2 41.2 10.2s19-1.7 27.7-5c5.4-2.1 10.6-4.8 15.3-8.2v12.4h54V469.9c0-18.1-3.4-34.3-10-48.1Zm-44 157.4v78.4c0 9.7-1.7 18.2-4.9 25.2-3.1 6.6-7.2 11.5-12.6 15-5.3 3.5-11.4 5.2-18.6 5.2-10.4 0-18.3-2.9-23.9-8.8-5.7-6-8.6-15.6-8.6-28.7v-40.6c0-12.3 3.9-21.8 11.8-29.1 8.6-7.9 23-13 42.8-15.3l14.2-1.2Z" class="st0"/></svg>